<svg width="70" height="55" viewBox="0 0 70 55" fill="none" xmlns="http://www.w3.org/2000/svg">
<g clip-path="url(#clip0_124_142)">
<path d="M56 22C56 17.6239 53.7875 13.4271 49.8492 10.3327C45.911 7.23839 40.5695 5.5 35 5.5C29.4305 5.5 24.089 7.23839 20.1508 10.3327C16.2125 13.4271 14 17.6239 14 22V52.25H7C5.14348 52.25 3.36301 51.6705 2.05025 50.6391C0.737498 49.6076 0 48.2087 0 46.75V35.75C0 34.2913 0.737498 32.8924 2.05025 31.8609C3.36301 30.8295 5.14348 30.25 7 30.25V22C7 16.1652 9.94999 10.5695 15.201 6.44365C20.452 2.31785 27.5739 0 35 0C42.4261 0 49.548 2.31785 54.799 6.44365C60.05 10.5695 63 16.1652 63 22V30.25C64.8565 30.25 66.637 30.8295 67.9497 31.8609C69.2625 32.8924 70 34.2913 70 35.75V46.75C70 48.2087 69.2625 49.6076 67.9497 50.6391C66.637 51.6705 64.8565 52.25 63 52.25H56V22ZM42 27.5H52.5V55H42V27.5ZM17.5 27.5H28V55H17.5V27.5Z" fill="#006543"/>
</g>
<defs>
<clipPath id="clip0_124_142">
<rect width="70" height="55" fill="white"/>
</clipPath>
</defs>
</svg>
