<svg width="17" height="17" viewBox="0 0 17 17" fill="none" xmlns="http://www.w3.org/2000/svg">
<path d="M14.875 7.4375H9.5625V2.125C9.5625 1.5385 9.0865 1.0625 8.5 1.0625C7.9135 1.0625 7.4375 1.5385 7.4375 2.125V7.4375H2.125C1.5385 7.4375 1.0625 7.9135 1.0625 8.5C1.0625 9.0865 1.5385 9.5625 2.125 9.5625H7.4375V14.875C7.4375 15.4615 7.9135 15.9375 8.5 15.9375C9.0865 15.9375 9.5625 15.4615 9.5625 14.875V9.5625H14.875C15.4615 9.5625 15.9375 9.0865 15.9375 8.5C15.9375 7.9135 15.4615 7.4375 14.875 7.4375Z" fill="black"/>
</svg>
