<svg width="33" height="34" viewBox="0 0 33 34" fill="none" xmlns="http://www.w3.org/2000/svg">
<path d="M31.6767 7.90833C31.3583 7.54333 30.9 7.33333 30.4167 7.33333H7.385L7.06 5.39333C6.92667 4.59 6.23167 4 5.41667 4H1.66667C0.745 4 0 4.745 0 5.66667C0 6.58833 0.745 7.33333 1.66667 7.33333H4.005L7.105 25.94C7.11833 26.015 7.15667 26.0767 7.18 26.1467C7.20667 26.235 7.22833 26.3183 7.27 26.3983C7.32333 26.5083 7.395 26.6017 7.47 26.6967C7.52167 26.7617 7.56833 26.8267 7.62833 26.8833C7.725 26.9733 7.83667 27.0367 7.95 27.1C8.01333 27.135 8.06833 27.1817 8.13667 27.2083C8.33 27.2867 8.53333 27.3333 8.74833 27.3333H27.0833C28.005 27.3333 28.75 26.5883 28.75 25.6667C28.75 24.745 28.005 24 27.0833 24H10.1617L9.885 22.3333H28.75C29.58 22.3333 30.2833 21.7233 30.4 20.9033L32.0667 9.23667C32.135 8.75667 31.9917 8.27167 31.6767 7.90833ZM28.495 10.6667L28.02 14H22.0833V10.6667H28.495ZM20.4167 10.6667V14H15.4167V10.6667H20.4167ZM20.4167 15.6667V19H15.4167V15.6667H20.4167ZM13.75 10.6667V14H8.75C8.66167 14 8.58167 14.025 8.50333 14.05L7.94 10.6667H13.75ZM8.77333 15.6667H13.75V19H9.32833L8.77333 15.6667ZM22.0833 19V15.6667H27.78L27.305 19H22.0833Z" fill="#006543"/>
<path d="M11.25 34C12.6307 34 13.75 32.8807 13.75 31.5C13.75 30.1193 12.6307 29 11.25 29C9.86929 29 8.75 30.1193 8.75 31.5C8.75 32.8807 9.86929 34 11.25 34Z" fill="#006543"/>
<path d="M26.25 34C27.6307 34 28.75 32.8807 28.75 31.5C28.75 30.1193 27.6307 29 26.25 29C24.8693 29 23.75 30.1193 23.75 31.5C23.75 32.8807 24.8693 34 26.25 34Z" fill="#006543"/>
<circle cx="18.5" cy="7.5" r="7" stroke="#006543"/>
<rect x="12" y="1" width="13" height="13" rx="6.5" fill="white"/>
<path d="M14.8705 11.1292C14.9788 11.2375 15.0872 11.2917 15.2497 11.2917C15.4122 11.2917 15.5205 11.2375 15.6288 11.1292L18.4997 8.25833L21.3705 11.1292C21.4788 11.2375 21.6413 11.2917 21.7497 11.2917C21.858 11.2917 22.0205 11.2375 22.1288 11.1292C22.3455 10.9125 22.3455 10.5875 22.1288 10.3708L19.258 7.5L22.1288 4.62916C22.3455 4.41249 22.3455 4.08749 22.1288 3.87083C21.9122 3.65416 21.5872 3.65416 21.3705 3.87083L18.4997 6.74166L15.6288 3.87083C15.4122 3.65416 15.0872 3.65416 14.8705 3.87083C14.6538 4.08749 14.6538 4.41249 14.8705 4.62916L17.7413 7.5L14.8705 10.3708C14.6538 10.5875 14.6538 10.9125 14.8705 11.1292Z" fill="#006543"/>
</svg>
