<svg width="30" height="30" viewBox="0 0 30 30" fill="none" xmlns="http://www.w3.org/2000/svg">
<path fill-rule="evenodd" clip-rule="evenodd" d="M15 1.875C7.75195 1.875 1.875 7.89844 1.875 15.334C1.875 21.2812 5.63672 26.3203 10.8516 28.1016C11.5078 28.2246 11.748 27.8086 11.748 27.4512C11.748 27.1289 11.7363 26.2852 11.7305 25.1602C8.08008 25.9746 7.30664 23.3555 7.30664 23.3555C6.70898 21.8027 5.84766 21.3867 5.84766 21.3867C4.6582 20.5488 5.93555 20.5664 5.93555 20.5664C7.25391 20.6602 7.94531 21.9551 7.94531 21.9551C9.11719 24.0117 11.0156 23.4199 11.7656 23.0742C11.8828 22.207 12.2227 21.6094 12.5977 21.2754C9.68555 20.9355 6.62109 19.7812 6.62109 14.625C6.62109 13.1543 7.13086 11.9531 7.96875 11.0156C7.83398 10.6758 7.38281 9.30469 8.09766 7.45312C8.09766 7.45312 9.19922 7.08984 11.707 8.83008C12.7559 8.53125 13.875 8.38477 14.9941 8.37891C16.1074 8.38477 17.2324 8.53125 18.2812 8.83008C20.7891 7.08984 21.8848 7.45312 21.8848 7.45312C22.5996 9.30469 22.1484 10.6758 22.0137 11.0156C22.8516 11.959 23.3613 13.1602 23.3613 14.625C23.3613 19.793 20.291 20.9297 17.3672 21.2637C17.8359 21.6797 18.2578 22.5 18.2578 23.7539C18.2578 25.5527 18.2402 27.0059 18.2402 27.4453C18.2402 27.8027 18.4746 28.2246 19.1426 28.0898C24.3691 26.3145 28.125 21.2754 28.125 15.334C28.125 7.89844 22.248 1.875 15 1.875Z" fill="#006543"/>
</svg>
