<svg width="28" height="28" viewBox="0 0 28 28" fill="none" xmlns="http://www.w3.org/2000/svg">
<path d="M20.3892 24.6094H6.11572C5.89816 24.6094 5.68951 24.5229 5.53567 24.3691C5.38184 24.2153 5.29541 24.0066 5.29541 23.7891V8.23429C5.29541 8.01673 5.38184 7.80808 5.53567 7.65424C5.68951 7.5004 5.89816 7.41398 6.11572 7.41398H20.3892C20.6067 7.41398 20.8154 7.5004 20.9692 7.65424C21.123 7.80808 21.2095 8.01673 21.2095 8.23429V23.7891C21.2095 24.0066 21.123 24.2153 20.9692 24.3691C20.8154 24.5229 20.6067 24.6094 20.3892 24.6094ZM6.93604 22.9687H19.5688V9.0546H6.93604V22.9687Z" fill="#006543"/>
<path d="M16.4512 11.9219C16.2336 11.9219 16.025 11.8354 15.8711 11.6816C15.7173 11.5278 15.6309 11.3191 15.6309 11.1016V6.64453C15.6175 6.02244 15.361 5.43032 14.9163 4.99507C14.4717 4.55983 13.8742 4.31609 13.252 4.31609C12.6297 4.31609 12.0322 4.55983 11.5876 4.99507C11.1429 5.43032 10.8864 6.02244 10.873 6.64453V11.1016C10.873 11.3191 10.7866 11.5278 10.6328 11.6816C10.4789 11.8354 10.2703 11.9219 10.0527 11.9219C9.83517 11.9219 9.62652 11.8354 9.47269 11.6816C9.31885 11.5278 9.23242 11.3191 9.23242 11.1016V6.64453C9.24982 5.58997 9.68095 4.58448 10.4329 3.84486C11.1848 3.10525 12.1972 2.69076 13.252 2.69076C14.3067 2.69076 15.3191 3.10525 16.071 3.84486C16.823 4.58448 17.2541 5.58997 17.2715 6.64453V11.1016C17.2715 11.3191 17.1851 11.5278 17.0312 11.6816C16.8774 11.8354 16.6687 11.9219 16.4512 11.9219Z" fill="#006543"/>
</svg>
