<svg width="18" height="18" viewBox="0 0 18 18" fill="none" xmlns="http://www.w3.org/2000/svg">
<path d="M7.02149 6.86851C7.02149 6.86851 4.65149 7.13101 3.07049 7.30651C2.92799 7.32376 2.80199 7.41901 2.75474 7.56376C2.70749 7.70851 2.75474 7.85926 2.85974 7.95451C4.03424 9.02626 5.79899 10.6313 5.79899 10.6313C5.79749 10.6313 5.31449 12.966 4.99349 14.5238C4.96649 14.6648 5.01749 14.814 5.14049 14.9033C5.26274 14.9925 5.42024 14.994 5.54399 14.9243C6.92699 14.1383 8.99849 12.9563 8.99849 12.9563C8.99849 12.9563 11.0707 14.1383 12.4515 14.925C12.5775 14.994 12.735 14.9925 12.8572 14.9033C12.9802 14.814 13.0312 14.6648 13.0035 14.5245C12.6825 12.966 12.2002 10.6313 12.2002 10.6313C12.2002 10.6313 13.965 9.02626 15.1395 7.95676C15.2445 7.85851 15.291 7.70776 15.2445 7.56376C15.198 7.41976 15.072 7.32451 14.9295 7.30801C13.3485 7.13101 10.9777 6.86851 10.9777 6.86851C10.9777 6.86851 9.99524 4.69501 9.34049 3.24601C9.27899 3.11626 9.14999 3.02551 8.99849 3.02551C8.84699 3.02551 8.71724 3.11701 8.65874 3.24601C8.00324 4.69501 7.02149 6.86851 7.02149 6.86851Z" fill="#006543"/>
</svg>
