<svg width="30" height="30" viewBox="0 0 30 30" fill="none" xmlns="http://www.w3.org/2000/svg">
<g clip-path="url(#clip0_3_79)">
<path d="M23.8961 12C23.8961 9.61305 22.952 7.32387 21.2715 5.63604C19.591 3.94821 17.3117 3 14.9351 3C12.5584 3 10.2792 3.94821 8.59865 5.63604C6.91813 7.32387 5.97403 9.61305 5.97403 12V28.5H2.98701C2.19481 28.5 1.43505 28.1839 0.874876 27.6213C0.314702 27.0587 0 26.2956 0 25.5V19.5C0 18.7044 0.314702 17.9413 0.874876 17.3787C1.43505 16.8161 2.19481 16.5 2.98701 16.5V12C2.98701 8.8174 4.24582 5.76516 6.48652 3.51472C8.72721 1.26428 11.7662 0 14.9351 0C18.1039 0 21.1429 1.26428 23.3836 3.51472C25.6243 5.76516 26.8831 8.8174 26.8831 12V16.5C27.6753 16.5 28.4351 16.8161 28.9953 17.3787C29.5554 17.9413 29.8701 18.7044 29.8701 19.5V25.5C29.8701 26.2956 29.5554 27.0587 28.9953 27.6213C28.4351 28.1839 27.6753 28.5 26.8831 28.5H23.8961V12ZM17.9221 15H22.4026V30H17.9221V15ZM7.46753 15H11.9481V30H7.46753V15Z" fill="#006543"/>
</g>
<defs>
<clipPath id="clip0_3_79">
<rect width="29.8701" height="30" fill="white"/>
</clipPath>
</defs>
</svg>
